<svg width="282.9" height="267.3" viewBox="0 0 282.9 267.3" xmlns="http://www.w3.org/2000/svg"><g id="svgGroup" stroke-linecap="round" fill-rule="evenodd" font-size="9pt" stroke="#000" stroke-width="0.25mm" fill="#000" style="stroke:#000;stroke-width:0.25mm;fill:#000"><path d="M 280.091 206.176 A 11.521 11.521 0 0 0 282.9 200.7 A 2.668 2.668 0 0 0 282.899 200.699 Q 282.298 200.099 280.5 199.2 Q 277.5 197.4 274.65 195.3 Q 271.8 193.2 272.4 190.2 Q 263.7 180 251.85 172.65 Q 240 165.3 227.55 158.7 Q 215.1 152.1 204 144.3 A 88.092 88.092 0 0 1 196.969 138.644 A 115.123 115.123 0 0 1 189 130.8 A 192.245 192.245 0 0 0 186.177 127.815 A 170.874 170.874 0 0 0 173.7 116.1 A 105.732 105.732 0 0 0 171.149 113.89 A 119.752 119.752 0 0 0 161.1 106.35 Q 154.2 101.7 151.5 94.2 Q 169.2 93.6 185.85 93 Q 202.5 92.4 224.7 91.8 A 8.736 8.736 0 0 1 224.757 91.559 Q 225.341 89.242 226.779 89.242 A 1.886 1.886 0 0 1 226.95 89.25 A 1.329 1.329 0 0 0 227.07 89.256 Q 228.611 89.256 228.9 85.5 L 230.25 86.25 A 4.774 4.774 0 0 0 230.312 86.284 Q 231.248 86.786 232.255 86.786 A 4.301 4.301 0 0 0 233.1 86.7 A 22.794 22.794 0 0 0 231.996 82.704 A 15.681 15.681 0 0 0 225.75 74.85 A 41.075 41.075 0 0 0 220.7 72.1 A 49.629 49.629 0 0 0 212.25 69.15 Q 204.6 67.2 197.4 64.8 A 2.499 2.499 0 0 0 197.248 64.835 Q 196.239 65.104 195.985 66.127 A 3.219 3.219 0 0 0 195.9 66.9 Q 195.9 68.7 194.4 69 Q 190.8 69.3 187.65 69.6 Q 184.5 69.9 181.5 70.2 Q 176.775 70.706 172.667 70.975 A 143.412 143.412 0 0 1 166.65 71.25 A 32.974 32.974 0 0 1 165.883 71.259 Q 162.011 71.259 157.361 70.376 A 73.893 73.893 0 0 1 151.5 69 A 15.095 15.095 0 0 1 151.482 68.851 Q 151.205 66.436 151.35 61.2 Q 151.5 55.8 152.4 50.4 Q 152.7 48 153.45 46.2 A 70.82 70.82 0 0 1 153.904 45.134 Q 154.124 44.63 154.329 44.184 A 34.18 34.18 0 0 1 154.8 43.2 A 47.685 47.685 0 0 0 155.031 42.57 Q 155.366 41.638 155.629 40.777 A 28.583 28.583 0 0 0 156.15 38.85 A 4.519 4.519 0 0 0 156.225 38.437 Q 156.41 37.061 155.879 35.098 A 18.699 18.699 0 0 0 155.4 33.6 A 23.166 23.166 0 0 0 152.141 26.797 A 31.054 31.054 0 0 0 147.9 21.9 Q 142.2 16.5 136.05 11.1 A 69.586 69.586 0 0 1 131.099 6.318 A 53.762 53.762 0 0 1 126 0 A 19.795 19.795 0 0 0 125.057 0.638 Q 122.498 2.481 121.35 4.65 Q 120 7.2 120 10.2 Q 120 13.05 120.793 16.27 A 38.33 38.33 0 0 0 122.25 20.85 Q 124.5 26.7 125.1 33.6 Q 126.3 44.4 126.6 54.45 A 236.067 236.067 0 0 1 126.644 56.109 Q 126.766 61.452 126.623 66.134 A 133.289 133.289 0 0 1 126.3 72.3 Q 120.6 72 115.05 72.45 Q 109.5 72.9 104.1 73.2 Q 96 74.1 88.5 74.25 A 57.614 57.614 0 0 1 87.348 74.262 A 55.649 55.649 0 0 1 73.8 72.6 Q 71.4 72 69.3 70.95 Q 67.2 69.9 65.1 69 A 64.378 64.378 0 0 0 63.834 68.343 A 57.436 57.436 0 0 0 56.1 65.1 A 10.341 10.341 0 0 0 52.809 64.564 Q 51.093 64.564 49.297 65.121 A 16.319 16.319 0 0 0 46.5 66.3 Q 50.4 75.9 57.75 85.05 Q 65.1 94.2 72.9 102 A 44.916 44.916 0 0 1 78.562 99.107 A 34.388 34.388 0 0 1 87.75 96.6 A 115.319 115.319 0 0 1 93.41 96.052 A 139.379 139.379 0 0 1 103.5 95.7 L 110.4 95.7 A 89.14 89.14 0 0 0 112.219 95.681 A 100.981 100.981 0 0 0 117.9 95.4 A 8.159 8.159 0 0 1 117.843 96.355 Q 117.717 97.424 117.314 98.576 A 15.342 15.342 0 0 1 116.4 100.65 Q 114.9 103.5 112.8 106.5 Q 110.4 110.4 108.45 114.45 A 21.78 21.78 0 0 0 108.157 115.084 A 18.652 18.652 0 0 0 106.5 122.7 Q 105.6 123.3 104.55 124.05 Q 103.5 124.8 102.6 125.4 A 159.815 159.815 0 0 0 99.571 127.536 A 189.102 189.102 0 0 0 92.7 132.75 A 42.541 42.541 0 0 0 88.903 136.14 A 33.045 33.045 0 0 0 84.6 141.45 Q 82.292 145.027 82.292 148.87 A 13.386 13.386 0 0 0 82.5 151.2 A 6.932 6.932 0 0 0 82.425 151.2 A 5.496 5.496 0 0 0 78.45 152.85 L 75.3 156 A 20.98 20.98 0 0 1 74.915 156.558 Q 73.908 157.968 72.9 158.85 A 3.273 3.273 0 0 1 70.67 159.667 Q 70.3 159.667 69.9 159.6 A 6.032 6.032 0 0 1 68.346 163.213 A 7.687 7.687 0 0 1 66.45 164.7 Q 63.3 166.5 59.7 168.9 Q 59.1 174.3 54.75 178.2 Q 50.4 182.1 45.15 185.7 A 37.225 37.225 0 0 0 43.25 187.092 A 31.726 31.726 0 0 0 36.6 194.1 L 37.65 194.1 Q 38.479 194.1 38.653 194.847 A 1.996 1.996 0 0 1 38.7 195.3 Q 35.7 194.7 33.6 196.05 Q 31.5 197.4 29.7 198.9 A 23.206 23.206 0 0 1 28.676 199.865 A 19.659 19.659 0 0 1 25.95 201.9 Q 24 203.1 21 202.5 A 2.497 2.497 0 0 1 20.291 204.279 A 3.715 3.715 0 0 1 19.5 204.9 A 23.212 23.212 0 0 1 18.938 205.227 A 20.519 20.519 0 0 1 16.5 206.4 Q 15.319 206.737 14.375 207.17 A 9.572 9.572 0 0 0 13.05 207.9 A 2.291 2.291 0 0 0 12.996 207.937 Q 11.896 208.717 12.397 210.351 A 5.469 5.469 0 0 0 12.6 210.9 L 13.8 210.15 Q 15 209.4 15.6 210.9 Q 13.723 212.569 12.28 213.222 A 4.799 4.799 0 0 1 11.1 213.6 A 2.951 2.951 0 0 1 11.068 213.605 Q 9.704 213.817 7.659 212.837 A 16.583 16.583 0 0 1 6.3 212.1 A 4.828 4.828 0 0 1 6.197 213.139 Q 5.887 214.543 4.646 215.017 A 3.927 3.927 0 0 1 3.45 215.25 A 7.379 7.379 0 0 0 3.122 215.274 Q 0.565 215.524 0 217.5 Q 3 217.5 5.25 218.7 Q 7.5 219.9 9.6 221.4 Q 11.4 222.6 13.5 223.65 Q 15.6 224.7 18 224.7 A 11.585 11.585 0 0 0 19.748 224.446 A 8.073 8.073 0 0 0 24.45 221.55 Q 25.997 219.591 28.749 218.837 A 13.629 13.629 0 0 1 31.5 218.4 A 6.246 6.246 0 0 0 31.512 218.336 Q 31.68 217.448 31.526 216.829 A 1.746 1.746 0 0 0 31.2 216.15 A 5.907 5.907 0 0 0 30.697 215.598 A 7.035 7.035 0 0 0 29.7 214.8 A 3.518 3.518 0 0 1 29.272 214.468 Q 28.277 213.555 29.07 212.479 A 3.363 3.363 0 0 1 29.4 212.1 Q 30.9 213.3 32.7 214.05 Q 34.5 214.8 36.6 215.1 A 70.499 70.499 0 0 1 37.391 214.029 Q 43.35 206.119 50.1 201.9 A 61.107 61.107 0 0 0 50.578 201.598 Q 54.169 199.307 57.835 196.272 A 100.83 100.83 0 0 0 64.8 189.9 Q 70.2 192.6 73.8 197.1 Q 77.4 201.6 81.6 205.35 A 14.444 14.444 0 0 0 83.636 206.865 Q 85.737 208.162 88.434 208.889 A 26.994 26.994 0 0 0 93.3 209.7 A 20.797 20.797 0 0 1 98.482 206.473 A 27.462 27.462 0 0 1 103.95 204.75 Q 110.4 203.4 117 203.25 Q 123.6 203.1 128.7 203.4 L 128.7 207 L 128.7 210.6 A 63.276 63.276 0 0 1 128.705 210.694 Q 128.993 216.637 128.1 221.4 A 5.461 5.461 0 0 1 125.786 225.067 Q 124.758 225.77 123.298 226.133 A 13.819 13.819 0 0 1 120.6 226.5 A 260.823 260.823 0 0 0 120.884 228.358 Q 121.892 234.811 123.128 240.55 A 156.245 156.245 0 0 0 125.85 251.4 A 22.936 22.936 0 0 0 133.194 262.73 A 30.228 30.228 0 0 0 140.7 267.3 Q 145.5 263.1 147.75 256.95 A 46.422 46.422 0 0 0 148.995 253.004 A 53.478 53.478 0 0 0 150.6 243.6 A 100.827 100.827 0 0 0 150.943 235.224 A 110.249 110.249 0 0 0 150.75 228.75 Q 150.3 221.1 149.7 213.6 Q 149.4 211.2 149.25 208.8 A 64.124 64.124 0 0 0 149.116 207.042 A 53.168 53.168 0 0 0 148.8 204.3 A 169.988 169.988 0 0 1 151.079 203.923 Q 154.45 203.389 157.536 203.045 A 102.324 102.324 0 0 1 164.4 202.5 Q 171.3 202.2 178.2 202.2 Q 184.5 202.2 191.4 202.05 Q 198.3 201.9 207.3 201 A 25.472 25.472 0 0 0 201.312 190.737 A 32.687 32.687 0 0 0 194.1 185.1 A 59.917 59.917 0 0 0 185.228 180.834 A 71.685 71.685 0 0 0 170.7 177 Q 170.1 181.5 163.95 182.1 A 89.772 89.772 0 0 1 160.941 182.344 Q 156.525 182.625 152.7 182.4 L 148.8 182.4 Q 148.8 181.2 148.65 180 Q 148.5 178.8 148.5 177.6 Q 147.9 163.5 147.75 149.25 A 210.233 210.233 0 0 1 147.738 147.037 Q 147.738 133.638 149.4 117.3 Q 159.3 133.8 171.15 148.35 Q 183 162.9 195 177.3 Q 207 191.7 217.8 207.3 A 12.827 12.827 0 0 1 217.95 207.32 A 13.362 13.362 0 0 1 222.45 208.8 Q 224.434 209.858 224.202 211.848 A 4.345 4.345 0 0 1 224.1 212.4 A 57.563 57.563 0 0 0 225.517 213.057 A 61.789 61.789 0 0 0 240.3 217.5 Q 245.194 218.344 249.423 219.282 A 133.281 133.281 0 0 1 255.6 220.8 A 10.711 10.711 0 0 1 256.38 219.47 Q 257.62 217.688 259.2 217.35 Q 261.3 216.9 264 216.6 Q 266.1 216.6 268.2 216.3 A 6.242 6.242 0 0 0 268.877 216.164 Q 269.851 215.913 270.825 215.339 A 11.062 11.062 0 0 0 272.4 214.2 Q 272.859 212.362 275.605 209.997 A 30.981 30.981 0 0 1 277.5 208.5 A 16.697 16.697 0 0 0 280.091 206.176 Z M 128.26 163.593 A 1432.549 1432.549 0 0 0 128.7 184.5 Q 122.7 183.9 116.4 184.2 Q 110.1 184.5 103.8 185.1 Q 94.8 185.7 86.1 186 Q 82.574 186.122 79.295 185.849 A 46.033 46.033 0 0 1 70.2 184.2 Q 72.3 180.6 75.75 178.2 Q 79.2 175.8 82.2 173.25 Q 85.2 170.7 85.8 166.8 Q 97.8 159 106.95 148.65 Q 116.1 138.3 125.4 127.8 A 23.157 23.157 0 0 1 125.658 128.576 Q 126.715 131.945 127.25 136.995 A 92.888 92.888 0 0 1 127.65 142.35 Q 128.1 151.8 128.25 162.9 A 1555.888 1555.888 0 0 0 128.26 163.593 Z M 55.613 172.842 A 2.397 2.397 0 0 0 55.2 172.5 A 2.412 2.412 0 0 1 55.006 172.924 Q 54.565 173.701 53.4 174.75 Q 51.9 176.1 49.8 177.3 A 62.292 62.292 0 0 0 48.063 178.65 A 51.837 51.837 0 0 0 45.45 180.9 A 6.462 6.462 0 0 0 45.155 181.19 Q 43.622 182.798 45 183.9 Q 45.413 183.281 46.179 182.592 A 14.105 14.105 0 0 1 46.95 181.95 Q 48.3 180.9 49.8 180 A 80.66 80.66 0 0 0 51.444 178.687 A 68.863 68.863 0 0 0 54.75 175.8 A 7.537 7.537 0 0 0 55.158 175.391 Q 56.571 173.853 55.613 172.842 Z" id="0" vector-effect="non-scaling-stroke"/></g></svg>