<svg width="251.101" height="248.5" viewBox="0 0 251.101 248.5" xmlns="http://www.w3.org/2000/svg"><g id="svgGroup" stroke-linecap="round" fill-rule="evenodd" font-size="9pt" stroke="#000" stroke-width="0.25mm" fill="#000" style="stroke:#000;stroke-width:0.25mm;fill:#000"><path d="M 250.555 29.632 A 7.301 7.301 0 0 0 251.1 26.76 A 9.405 9.405 0 0 0 250.96 25.095 A 5.961 5.961 0 0 0 247.95 20.76 Q 244.8 18.96 241.5 17.46 A 10.523 10.523 0 0 1 241.032 17.233 Q 238.178 15.762 237.9 13.26 A 141.48 141.48 0 0 0 237.628 13.105 Q 235.579 11.94 233.25 10.705 A 233.987 233.987 0 0 0 228.3 8.16 A 66.538 66.538 0 0 0 226.612 7.346 A 59.089 59.089 0 0 0 217.5 3.96 A 1.913 1.913 0 0 0 217.429 3.927 Q 216.956 3.714 215.878 3.501 A 26.595 26.595 0 0 0 215.1 3.36 Q 210.9 2.16 205.35 0.96 Q 199.8 -0.24 196.2 0.06 A 21.644 21.644 0 0 0 192.759 0.638 A 27.524 27.524 0 0 0 188.7 2.01 A 36.434 36.434 0 0 1 187.725 2.406 A 32.326 32.326 0 0 1 180.9 4.26 A 28.386 28.386 0 0 1 179.283 4.443 A 34.16 34.16 0 0 1 176.4 4.56 Q 174 4.56 171.6 4.26 L 169.2 4.26 L 166.8 4.26 Q 154.2 3.96 140.85 4.86 Q 127.5 5.76 114 6.96 Q 111.3 7.26 108.6 7.41 Q 105.9 7.56 103.2 7.86 Q 78.6 9.96 57.45 11.76 A 182.299 182.299 0 0 0 49.11 12.657 Q 41.43 13.669 34.82 15.272 A 90.834 90.834 0 0 0 22.2 19.26 Q 15 20.46 8.7 21.06 A 9.304 9.304 0 0 0 1.797 24.833 A 13.313 13.313 0 0 0 0 28.26 A 41.575 41.575 0 0 0 1.54 29.723 A 44.963 44.963 0 0 0 11.25 36.36 A 49.681 49.681 0 0 1 12.248 36.885 A 43.937 43.937 0 0 1 22.5 44.46 Q 28.054 59.368 28.054 79.26 A 143.914 143.914 0 0 1 28.05 80.31 A 638.144 638.144 0 0 1 27.991 85.469 A 704.611 704.611 0 0 1 26.4 122.76 Q 26.1 126.96 25.95 131.01 Q 25.8 135.06 25.5 139.26 Q 25.2 144.66 25.2 150.21 A 199.185 199.185 0 0 0 25.219 152.957 A 176 176 0 0 0 25.5 160.86 L 25.5 177.21 Q 25.5 184.86 24 191.46 A 31.805 31.805 0 0 1 22.678 196.476 A 23.696 23.696 0 0 1 19.5 202.56 A 14.516 14.516 0 0 0 17.947 205.256 Q 16.2 209.184 16.2 214.86 A 29.13 29.13 0 0 1 17.1 215.802 A 35.096 35.096 0 0 1 18.6 217.56 L 21 220.56 Q 26.1 226.56 32.25 231.96 A 17.542 17.542 0 0 0 44.221 236.378 Q 44.511 236.378 44.803 236.371 A 24.512 24.512 0 0 0 47.4 236.16 A 168.905 168.905 0 0 1 46.975 232.19 Q 45.947 221.38 46.2 209.61 Q 46.5 195.66 47.1 181.86 Q 47.4 174.06 47.55 166.26 Q 47.7 158.46 47.7 151.26 Q 47.7 138.66 48 127.41 Q 48.3 116.16 48.9 105.06 Q 49.2 97.56 49.5 89.91 Q 49.8 82.26 50.1 74.16 L 50.1 70.56 L 50.1 66.06 Q 49.8 60.36 49.95 53.61 A 106.568 106.568 0 0 1 50.225 47.905 A 84.198 84.198 0 0 1 51 41.16 Q 51.9 35.46 54.6 33.36 A 5.31 5.31 0 0 1 54.849 33.193 Q 56.524 32.134 60.541 31.151 A 70.265 70.265 0 0 1 63.45 30.51 A 454.067 454.067 0 0 0 66.441 29.902 Q 71.044 28.949 73.8 28.26 A 250.02 250.02 0 0 1 84.103 26.256 A 289.126 289.126 0 0 1 112.05 22.86 Q 132.3 21.36 153.15 21.36 A 937.686 937.686 0 0 1 163.472 21.416 A 830.552 830.552 0 0 1 193.2 22.26 A 17.299 17.299 0 0 1 194.992 24.065 Q 196.726 26.083 198.042 28.796 A 32.445 32.445 0 0 1 199.95 33.81 A 98.371 98.371 0 0 1 201.49 39.737 A 119.524 119.524 0 0 1 203.4 50.46 Q 204.6 59.46 204.9 67.86 Q 205.8 89.76 207.3 113.61 Q 208.8 137.46 209.1 159.66 A 318.384 318.384 0 0 1 209.167 166.156 A 295.129 295.129 0 0 1 208.35 188.31 A 69.865 69.865 0 0 1 207.368 195.908 A 56.389 56.389 0 0 1 201.3 213.06 A 61.299 61.299 0 0 1 186.016 214.995 A 63.592 63.592 0 0 1 177.45 214.41 Q 165.3 212.76 153.9 210.36 A 748.094 748.094 0 0 0 153.226 210.211 A 683.904 683.904 0 0 0 143.4 208.11 A 78.542 78.542 0 0 0 141.498 207.743 A 69.523 69.523 0 0 0 133.5 206.76 A 129.113 129.113 0 0 0 137.88 210.506 A 142.761 142.761 0 0 0 159.3 224.91 Q 173.7 232.86 190.5 239.16 Q 192.3 239.76 194.1 240.51 Q 195.9 241.26 197.7 241.86 A 145.453 145.453 0 0 0 202.791 243.962 A 119.39 119.39 0 0 0 210.9 246.81 A 36.143 36.143 0 0 0 215.893 247.965 Q 220.158 248.646 225 248.46 A 42.854 42.854 0 0 0 230.381 240.158 A 49.924 49.924 0 0 0 234.6 227.46 Q 237 215.16 237 201.06 Q 237 186.96 236.1 172.86 Q 235.8 164.76 235.35 156.96 Q 234.9 149.16 235.2 141.96 Q 235.5 131.16 234.9 120.51 Q 234.3 109.86 233.7 99.06 Q 232.5 84.66 231.9 70.26 Q 231.3 55.86 233.1 41.46 Q 236.1 38.46 240.3 36.66 A 60.261 60.261 0 0 0 243.564 35.148 A 47.691 47.691 0 0 0 247.8 32.76 Q 249.759 31.513 250.555 29.632 Z M 193.2 94.86 Q 183.3 93.66 169.05 94.41 Q 154.8 95.16 142.5 96.06 Q 140.4 96.36 138.3 96.51 A 60.896 60.896 0 0 1 136.032 96.631 A 48.11 48.11 0 0 1 134.4 96.66 Q 133.8 111.66 133.2 129.51 Q 132.6 147.36 132 164.16 A 25.762 25.762 0 0 0 134.077 164.331 Q 135.634 164.398 137.4 164.31 A 149.496 149.496 0 0 0 141.968 164.009 A 173.006 173.006 0 0 0 143.7 163.86 Q 147.9 163.56 152.1 163.41 Q 155.984 163.271 158.841 164.03 A 14.983 14.983 0 0 1 159.3 164.16 Q 159.3 163.86 159.6 163.26 A 312.151 312.151 0 0 0 161.686 148.53 A 336.679 336.679 0 0 0 161.7 148.41 Q 162.6 140.76 161.1 133.86 Q 160.2 129.06 156.6 125.76 Q 153 122.46 149.85 119.01 Q 146.7 115.56 146.7 111.06 A 21.775 21.775 0 0 1 156.398 108.05 Q 157.391 107.974 158.418 107.974 A 29.652 29.652 0 0 1 160.65 108.06 Q 168.6 108.66 175.65 112.56 A 27.504 27.504 0 0 1 183.115 118.49 A 25.302 25.302 0 0 1 186.3 123.06 Q 184.2 132.96 183.75 145.41 Q 183.3 157.86 182.7 169.26 A 74.496 74.496 0 0 1 181.87 177.262 Q 181.24 181.143 180.199 184.43 A 37.073 37.073 0 0 1 178.8 188.16 A 23.71 23.71 0 0 1 174.604 189.162 Q 169.73 189.848 165.3 188.16 Q 159 185.76 155.4 180.36 Q 134.7 180.96 115.8 181.56 A 111.194 111.194 0 0 0 102.617 182.717 Q 92.312 184.286 84.6 187.86 A 35.367 35.367 0 0 1 81.565 187.22 A 32.134 32.134 0 0 1 81.15 187.11 A 34.516 34.516 0 0 0 78.148 186.437 A 38.1 38.1 0 0 0 77.7 186.36 A 66.951 66.951 0 0 1 69.555 184.281 A 52.741 52.741 0 0 1 63.75 182.01 Q 57.6 179.16 58.2 169.86 A 7.175 7.175 0 0 0 59.785 170.666 Q 61.73 171.354 63.75 170.61 A 55.491 55.491 0 0 0 67.137 169.239 A 46.058 46.058 0 0 0 69 168.36 Q 69.692 168.129 70.029 167.899 A 1.196 1.196 0 0 0 70.2 167.76 Q 70.5 165.06 70.35 162.06 Q 70.2 159.06 70.2 155.76 Q 69.9 150.66 69.9 145.71 A 34.993 34.993 0 0 1 70.191 141.092 A 26.092 26.092 0 0 1 71.1 136.86 A 44.105 44.105 0 0 1 66.401 130.995 A 35.05 35.05 0 0 1 63.45 125.61 A 142.144 142.144 0 0 0 58.438 115.304 A 158.125 158.125 0 0 0 57.6 113.76 A 32.144 32.144 0 0 0 62.475 117.016 Q 65.564 118.672 68.654 119.294 A 19.325 19.325 0 0 0 69.6 119.46 Q 75.6 120.36 84 121.26 Q 91.091 124.149 92.204 131.292 A 17.635 17.635 0 0 1 92.4 133.41 Q 92.666 141.264 91.751 149.709 A 132.005 132.005 0 0 1 91.5 151.86 Q 90.9 156.06 90.6 160.11 Q 90.3 164.16 90.6 167.46 A 77.66 77.66 0 0 0 96.739 167.229 Q 100.031 166.968 102.9 166.41 A 55.702 55.702 0 0 1 109.165 165.576 A 73.286 73.286 0 0 1 114.9 165.36 Q 114.6 159.96 114.6 154.71 L 114.6 144.06 A 374.393 374.393 0 0 0 114.363 130.455 A 297.995 297.995 0 0 0 113.85 120.66 A 42.52 42.52 0 0 0 112.443 112.188 A 30.475 30.475 0 0 0 108 102.66 Q 99.9 103.56 90.3 104.01 Q 81.7 104.413 73.943 102.649 A 54.656 54.656 0 0 1 72.15 102.21 A 25.863 25.863 0 0 1 63.315 98.08 A 24.128 24.128 0 0 1 58.5 93.36 A 11.968 11.968 0 0 1 60.671 89.883 Q 62.893 87.456 66.402 86.818 A 13.033 13.033 0 0 1 66.75 86.76 A 76.543 76.543 0 0 1 74.067 86.009 A 96.393 96.393 0 0 1 79.5 85.86 L 88.5 85.26 A 29.282 29.282 0 0 0 95.149 84.064 A 26.475 26.475 0 0 0 96.9 83.46 Q 92.7 79.26 88.2 75.21 Q 83.7 71.16 80.4 66.06 A 21.782 21.782 0 0 0 81.316 61.577 Q 81.545 59.127 81.15 56.76 Q 80.4 52.26 79.2 48.06 Q 78.3 44.16 77.7 40.26 Q 77.145 36.653 77.873 32.788 A 25.875 25.875 0 0 1 78 32.16 Q 90.6 36.96 99.45 50.01 A 53.641 53.641 0 0 1 107.513 69.528 A 71.57 71.57 0 0 1 108.9 81.66 L 112.8 81.66 Q 117.6 81.96 123.6 81.81 Q 127.608 81.71 130.545 81.007 A 17.482 17.482 0 0 0 133.2 80.16 A 11.302 11.302 0 0 0 138.908 75.091 A 15.732 15.732 0 0 0 139.8 73.26 A 40.842 40.842 0 0 0 142.049 65.751 A 49.04 49.04 0 0 0 142.65 62.01 Q 143.4 55.86 144.45 49.86 A 35.033 35.033 0 0 1 145.403 45.777 Q 146.014 43.753 146.837 42.104 A 16.992 16.992 0 0 1 147.9 40.26 A 40.346 40.346 0 0 1 146.692 38.342 Q 145.584 36.457 145.092 35.034 A 9.056 9.056 0 0 1 144.9 34.41 A 13.848 13.848 0 0 0 143.596 31.169 A 12.61 12.61 0 0 0 143.1 30.36 A 5.35 5.35 0 0 0 142.139 29.305 Q 141.071 28.381 139.212 27.456 A 29.516 29.516 0 0 0 137.7 26.76 A 16.868 16.868 0 0 1 143.121 24.875 Q 146.06 24.363 149.55 24.66 Q 156.6 25.26 163.05 28.56 Q 169.5 31.86 171.3 37.26 A 16.938 16.938 0 0 1 172.126 40.682 Q 172.248 41.627 172.248 42.557 A 14.141 14.141 0 0 1 170.85 48.66 Q 168.3 54.06 164.7 59.16 Q 162.3 62.46 160.35 65.91 A 28.58 28.58 0 0 0 157.774 71.95 A 26.284 26.284 0 0 0 157.5 72.96 Q 163.8 74.76 171.3 77.01 Q 178.8 79.26 184.95 83.46 Q 191.1 87.66 193.2 94.86 Z" id="0" vector-effect="non-scaling-stroke"/></g></svg>